<?xml version="1.0" encoding="UTF-8" standalone="no"?>
<svg
   xmlns:dc="http://purl.org/dc/elements/1.1/"
   xmlns:cc="http://creativecommons.org/ns#"
   xmlns:rdf="http://www.w3.org/1999/02/22-rdf-syntax-ns#"
   xmlns:svg="http://www.w3.org/2000/svg"
   xmlns="http://www.w3.org/2000/svg"
   xmlns:sodipodi="http://sodipodi.sourceforge.net/DTD/sodipodi-0.dtd"
   xmlns:inkscape="http://www.inkscape.org/namespaces/inkscape"
   width="10mm"
   height="10mm"
   viewBox="0 0 60.000005 60"
   version="1.1"
   id="svg8"
   inkscape:version="1.0.1 (3bc2e813f5, 2020-09-07)"
   sodipodi:docname="smile.svg">
  <defs
     id="defs2" />
  <sodipodi:namedview
     id="base"
     pagecolor="#ffffff"
     bordercolor="#666666"
     borderopacity="1.0"
     inkscape:pageopacity="0.0"
     inkscape:pageshadow="2"
     inkscape:zoom="1.3556054"
     inkscape:cx="119.376"
     inkscape:cy="123.22798"
     inkscape:document-units="mm"
     inkscape:current-layer="svg8"
     inkscape:document-rotation="0"
     showgrid="false"
     inkscape:window-width="1350"
     inkscape:window-height="728"
     inkscape:window-x="-17"
     inkscape:window-y="36"
     inkscape:window-maximized="0"
     fit-margin-top="0"
     fit-margin-left="0"
     fit-margin-right="0"
     fit-margin-bottom="0"
     units="mm"
     lock-margins="false" />
  <metadata
     id="metadata5">
    <rdf:RDF>
      <cc:Work
         rdf:about="">
        <dc:format>image/svg+xml</dc:format>
        <dc:type
           rdf:resource="http://purl.org/dc/dcmitype/StillImage" />
        <dc:title></dc:title>
      </cc:Work>
    </rdf:RDF>
  </metadata>
  <path
     id="path833"
     style="opacity:1;fill:#70e000;fill-rule:evenodd;stroke:#000000;stroke-width:2.536;stroke-linejoin:round;stroke-miterlimit:4;stroke-dasharray:none;stroke-opacity:1;paint-order:stroke markers fill;fill-opacity:0.00000013"
     d="M 58.980239,29.866073 A 28.802461,28.504961 0 0 1 30.177778,58.371034 28.802461,28.504961 0 0 1 1.3753171,29.866073 28.802461,28.504961 0 0 1 30.177778,1.3611121 28.802461,28.504961 0 0 1 58.980239,29.866073 Z" />
  <path
     id="path835"
     style="opacity:0.999;fill:#000000;fill-rule:evenodd;stroke:none;stroke-width:0.618838;stroke-linejoin:round;stroke-opacity:0.23913;paint-order:stroke markers fill"
     d="m 21.131431,24.015457 a 2.1905816,2.1905816 0 0 1 -2.190583,2.190582 2.1905816,2.1905816 0 0 1 -2.19058,-2.190582 2.1905816,2.1905816 0 0 1 2.19058,-2.190581 2.1905816,2.1905816 0 0 1 2.190583,2.190581 z" />
  <path
     id="path837"
     style="opacity:0.999;fill:#000000;fill-rule:evenodd;stroke:none;stroke-width:0.618837;stroke-linejoin:round;stroke-opacity:1;paint-order:stroke markers fill"
     inkscape:transform-center-x="0.15245801"
     inkscape:transform-center-y="1.2323669"
     d="m 43.730766,23.687398 a 2.1905809,2.1905812 0 0 1 -2.190577,2.190578 2.1905809,2.1905812 0 0 1 -2.190585,-2.190578 2.1905809,2.1905812 0 0 1 2.190585,-2.190585 2.1905809,2.1905812 0 0 1 2.190577,2.190585 z" />
  <path
     style="opacity:1;fill:none;stroke:#000000;stroke-width:2.463;stroke-linecap:round;stroke-linejoin:miter;stroke-miterlimit:4;stroke-dasharray:none;stroke-opacity:1"
     d="m 11.693819,39.057296 c 0,0 4.048643,2.88337 7.321258,4.399785 8.673196,3.338919 20.169665,2.159342 24.70063,-0.52262 2.719932,-1.60998 5.884404,-4.155065 5.884404,-4.155065 v 0"
     id="path839"
     sodipodi:nodetypes="ccscc" />
  <path
     style="opacity:0.999;fill:none;stroke:#000000;stroke-width:0.252706px;stroke-linecap:butt;stroke-linejoin:miter;stroke-opacity:1"
     d="M 257.94322,49.114604 Z"
     id="path841" />
</svg>
